<svg xmlns="http://www.w3.org/2000/svg" version="1.1" xmlns:xlink="http://www.w3.org/1999/xlink" xmlns:svgjs="http://svgjs.com/svgjs" width="1440" height="560" preserveAspectRatio="none" viewBox="0 0 1440 560"><g mask="url(&quot;#SvgjsMask2117&quot;)" fill="none"><rect width="1440" height="560" x="0" y="0" fill="url(#SvgjsLinearGradient2118)"></rect><g mask="url(&quot;#SvgjsMask2120&quot;)"><path d="M724.5 -11.5L747.5 11.5" stroke="url(#SvgjsLinearGradient2119)" stroke-width="3.83"></path><path d="M741.75 11.5 a5.75 5.75 0 1 0 11.5 0 a5.75 5.75 0 1 0 -11.5 0z" fill="url(#SvgjsLinearGradient2119)"></path><path d="M724.5 80.5L701.5 103.5L701.5 126.5L701.5 149.5L701.5 172.5M747.5 149.5L724.5 172.5L724.5 195.5L724.5 218.5L724.5 241.5M724.5 34.5L747.5 57.5L747.5 80.5M701.5 -11.5L701.5 11.5L724.5 34.5L724.5 57.5L724.5 80.5L724.5 103.5L724.5 126.5L747.5 149.5L747.5 172.5L747.5 195.5L747.5 218.5L747.5 241.5" stroke="url(#SvgjsLinearGradient2119)" stroke-width="3.83"></path><path d="M741.75 241.5 a5.75 5.75 0 1 0 11.5 0 a5.75 5.75 0 1 0 -11.5 0zM695.75 172.5 a5.75 5.75 0 1 0 11.5 0 a5.75 5.75 0 1 0 -11.5 0zM718.75 241.5 a5.75 5.75 0 1 0 11.5 0 a5.75 5.75 0 1 0 -11.5 0zM741.75 80.5 a5.75 5.75 0 1 0 11.5 0 a5.75 5.75 0 1 0 -11.5 0z" fill="url(#SvgjsLinearGradient2119)"></path><path d="M770.5 80.5L770.5 103.5L770.5 126.5M747.5 -11.5L770.5 11.5L770.5 34.5L770.5 57.5L770.5 80.5L747.5 103.5L747.5 126.5L770.5 149.5L770.5 172.5" stroke="url(#SvgjsLinearGradient2119)" stroke-width="3.83"></path><path d="M764.75 172.5 a5.75 5.75 0 1 0 11.5 0 a5.75 5.75 0 1 0 -11.5 0zM764.75 126.5 a5.75 5.75 0 1 0 11.5 0 a5.75 5.75 0 1 0 -11.5 0z" fill="url(#SvgjsLinearGradient2119)"></path><path d="M678.5 34.5L701.5 57.5L701.5 80.5M678.5 -11.5L678.5 11.5L678.5 34.5L678.5 57.5" stroke="url(#SvgjsLinearGradient2119)" stroke-width="3.83"></path><path d="M672.75 57.5 a5.75 5.75 0 1 0 11.5 0 a5.75 5.75 0 1 0 -11.5 0zM695.75 80.5 a5.75 5.75 0 1 0 11.5 0 a5.75 5.75 0 1 0 -11.5 0z" fill="url(#SvgjsLinearGradient2119)"></path><path d="M793.5 126.5L816.5 149.5M770.5 -11.5L793.5 11.5L793.5 34.5L793.5 57.5L793.5 80.5L793.5 103.5L793.5 126.5L793.5 149.5L816.5 172.5" stroke="url(#SvgjsLinearGradient2119)" stroke-width="3.83"></path><path d="M810.75 172.5 a5.75 5.75 0 1 0 11.5 0 a5.75 5.75 0 1 0 -11.5 0zM810.75 149.5 a5.75 5.75 0 1 0 11.5 0 a5.75 5.75 0 1 0 -11.5 0z" fill="url(#SvgjsLinearGradient2119)"></path><path d="M655.5 80.5L678.5 103.5L678.5 126.5L678.5 149.5L678.5 172.5M655.5 103.5L632.5 126.5L632.5 149.5M655.5 -11.5L655.5 11.5L655.5 34.5L655.5 57.5L655.5 80.5L655.5 103.5L655.5 126.5" stroke="url(#SvgjsLinearGradient2119)" stroke-width="3.83"></path><path d="M649.75 126.5 a5.75 5.75 0 1 0 11.5 0 a5.75 5.75 0 1 0 -11.5 0zM672.75 172.5 a5.75 5.75 0 1 0 11.5 0 a5.75 5.75 0 1 0 -11.5 0zM626.75 149.5 a5.75 5.75 0 1 0 11.5 0 a5.75 5.75 0 1 0 -11.5 0z" fill="url(#SvgjsLinearGradient2119)"></path><path d="M816.5 80.5L816.5 103.5M793.5 -11.5L816.5 11.5L816.5 34.5L816.5 57.5L816.5 80.5L839.5 103.5L839.5 126.5L839.5 149.5" stroke="url(#SvgjsLinearGradient2119)" stroke-width="3.83"></path><path d="M833.75 149.5 a5.75 5.75 0 1 0 11.5 0 a5.75 5.75 0 1 0 -11.5 0zM810.75 103.5 a5.75 5.75 0 1 0 11.5 0 a5.75 5.75 0 1 0 -11.5 0z" fill="url(#SvgjsLinearGradient2119)"></path><path d="M609.5 34.5L632.5 57.5M609.5 11.5L632.5 34.5M632.5 -11.5L609.5 11.5L609.5 34.5L609.5 57.5L609.5 80.5" stroke="url(#SvgjsLinearGradient2119)" stroke-width="3.83"></path><path d="M603.75 80.5 a5.75 5.75 0 1 0 11.5 0 a5.75 5.75 0 1 0 -11.5 0zM626.75 57.5 a5.75 5.75 0 1 0 11.5 0 a5.75 5.75 0 1 0 -11.5 0zM626.75 34.5 a5.75 5.75 0 1 0 11.5 0 a5.75 5.75 0 1 0 -11.5 0z" fill="url(#SvgjsLinearGradient2119)"></path><path d="M839.5 57.5L839.5 80.5M862.5 172.5L862.5 195.5M816.5 -11.5L839.5 11.5L839.5 34.5L839.5 57.5L862.5 80.5L862.5 103.5L862.5 126.5L862.5 149.5L862.5 172.5L885.5 195.5L885.5 218.5" stroke="url(#SvgjsLinearGradient2119)" stroke-width="3.83"></path><path d="M879.75 218.5 a5.75 5.75 0 1 0 11.5 0 a5.75 5.75 0 1 0 -11.5 0zM833.75 80.5 a5.75 5.75 0 1 0 11.5 0 a5.75 5.75 0 1 0 -11.5 0zM856.75 195.5 a5.75 5.75 0 1 0 11.5 0 a5.75 5.75 0 1 0 -11.5 0z" fill="url(#SvgjsLinearGradient2119)"></path><path d="M586.5 149.5L563.5 172.5L563.5 195.5L586.5 218.5L586.5 241.5M586.5 126.5L609.5 149.5L609.5 172.5L609.5 195.5L609.5 218.5L609.5 241.5M609.5 -11.5L586.5 11.5L586.5 34.5L586.5 57.5L586.5 80.5L586.5 103.5L586.5 126.5L586.5 149.5L586.5 172.5" stroke="url(#SvgjsLinearGradient2119)" stroke-width="3.83"></path><path d="M580.75 172.5 a5.75 5.75 0 1 0 11.5 0 a5.75 5.75 0 1 0 -11.5 0zM580.75 241.5 a5.75 5.75 0 1 0 11.5 0 a5.75 5.75 0 1 0 -11.5 0zM603.75 241.5 a5.75 5.75 0 1 0 11.5 0 a5.75 5.75 0 1 0 -11.5 0z" fill="url(#SvgjsLinearGradient2119)"></path><path d="M908.5 218.5L931.5 241.5M839.5 -11.5L862.5 11.5L862.5 34.5L862.5 57.5L885.5 80.5L885.5 103.5L885.5 126.5L885.5 149.5L885.5 172.5L908.5 195.5L908.5 218.5L908.5 241.5" stroke="url(#SvgjsLinearGradient2119)" stroke-width="3.83"></path><path d="M902.75 241.5 a5.75 5.75 0 1 0 11.5 0 a5.75 5.75 0 1 0 -11.5 0zM925.75 241.5 a5.75 5.75 0 1 0 11.5 0 a5.75 5.75 0 1 0 -11.5 0z" fill="url(#SvgjsLinearGradient2119)"></path><path d="M563.5 126.5L563.5 149.5M586.5 -11.5L563.5 11.5L563.5 34.5L563.5 57.5L563.5 80.5L563.5 103.5L563.5 126.5L540.5 149.5" stroke="url(#SvgjsLinearGradient2119)" stroke-width="3.83"></path><path d="M534.75 149.5 a5.75 5.75 0 1 0 11.5 0 a5.75 5.75 0 1 0 -11.5 0zM557.75 149.5 a5.75 5.75 0 1 0 11.5 0 a5.75 5.75 0 1 0 -11.5 0z" fill="url(#SvgjsLinearGradient2119)"></path><path d="M862.5 -11.5L885.5 11.5L885.5 34.5L885.5 57.5L908.5 80.5L908.5 103.5L908.5 126.5L908.5 149.5L908.5 172.5L931.5 195.5" stroke="url(#SvgjsLinearGradient2119)" stroke-width="3.83"></path><path d="M925.75 195.5 a5.75 5.75 0 1 0 11.5 0 a5.75 5.75 0 1 0 -11.5 0z" fill="url(#SvgjsLinearGradient2119)"></path><path d="M517.5 172.5L540.5 195.5M563.5 -11.5L540.5 11.5L540.5 34.5L540.5 57.5L540.5 80.5L540.5 103.5L540.5 126.5L517.5 149.5L517.5 172.5L517.5 195.5" stroke="url(#SvgjsLinearGradient2119)" stroke-width="3.83"></path><path d="M511.75 195.5 a5.75 5.75 0 1 0 11.5 0 a5.75 5.75 0 1 0 -11.5 0zM534.75 195.5 a5.75 5.75 0 1 0 11.5 0 a5.75 5.75 0 1 0 -11.5 0z" fill="url(#SvgjsLinearGradient2119)"></path><path d="M908.5 34.5L908.5 57.5M885.5 -11.5L908.5 11.5L908.5 34.5L931.5 57.5L931.5 80.5L931.5 103.5L931.5 126.5L931.5 149.5" stroke="url(#SvgjsLinearGradient2119)" stroke-width="3.83"></path><path d="M925.75 149.5 a5.75 5.75 0 1 0 11.5 0 a5.75 5.75 0 1 0 -11.5 0zM902.75 57.5 a5.75 5.75 0 1 0 11.5 0 a5.75 5.75 0 1 0 -11.5 0z" fill="url(#SvgjsLinearGradient2119)"></path><path d="M908.5 -11.5L931.5 11.5L931.5 34.5L954.5 57.5L954.5 80.5L954.5 103.5L954.5 126.5" stroke="url(#SvgjsLinearGradient2119)" stroke-width="3.83"></path><path d="M948.75 126.5 a5.75 5.75 0 1 0 11.5 0 a5.75 5.75 0 1 0 -11.5 0z" fill="url(#SvgjsLinearGradient2119)"></path><path d="M517.5 57.5L494.5 80.5L494.5 103.5L494.5 126.5M494.5 195.5L471.5 218.5L471.5 241.5M517.5 11.5L494.5 34.5L494.5 57.5L471.5 80.5M517.5 -11.5L517.5 11.5L517.5 34.5L517.5 57.5L517.5 80.5L517.5 103.5L517.5 126.5L494.5 149.5L494.5 172.5L494.5 195.5L494.5 218.5" stroke="url(#SvgjsLinearGradient2119)" stroke-width="3.83"></path><path d="M488.75 218.5 a5.75 5.75 0 1 0 11.5 0 a5.75 5.75 0 1 0 -11.5 0zM488.75 126.5 a5.75 5.75 0 1 0 11.5 0 a5.75 5.75 0 1 0 -11.5 0zM465.75 241.5 a5.75 5.75 0 1 0 11.5 0 a5.75 5.75 0 1 0 -11.5 0zM465.75 80.5 a5.75 5.75 0 1 0 11.5 0 a5.75 5.75 0 1 0 -11.5 0z" fill="url(#SvgjsLinearGradient2119)"></path><path d="M977.5 80.5L1000.5 103.5M977.5 57.5L1000.5 80.5M931.5 -11.5L954.5 11.5L954.5 34.5L977.5 57.5L977.5 80.5L977.5 103.5" stroke="url(#SvgjsLinearGradient2119)" stroke-width="3.83"></path><path d="M971.75 103.5 a5.75 5.75 0 1 0 11.5 0 a5.75 5.75 0 1 0 -11.5 0zM994.75 103.5 a5.75 5.75 0 1 0 11.5 0 a5.75 5.75 0 1 0 -11.5 0zM994.75 80.5 a5.75 5.75 0 1 0 11.5 0 a5.75 5.75 0 1 0 -11.5 0z" fill="url(#SvgjsLinearGradient2119)"></path><path d="M471.5 -11.5L471.5 11.5L471.5 34.5" stroke="url(#SvgjsLinearGradient2119)" stroke-width="3.83"></path><path d="M465.75 34.5 a5.75 5.75 0 1 0 11.5 0 a5.75 5.75 0 1 0 -11.5 0z" fill="url(#SvgjsLinearGradient2119)"></path><path d="M977.5 -11.5L977.5 11.5L977.5 34.5" stroke="url(#SvgjsLinearGradient2119)" stroke-width="3.83"></path><path d="M971.75 34.5 a5.75 5.75 0 1 0 11.5 0 a5.75 5.75 0 1 0 -11.5 0z" fill="url(#SvgjsLinearGradient2119)"></path><path d="M448.5 103.5L471.5 126.5M448.5 126.5L448.5 149.5L448.5 172.5L448.5 195.5L448.5 218.5M448.5 -11.5L448.5 11.5L448.5 34.5L448.5 57.5L448.5 80.5L448.5 103.5L448.5 126.5L425.5 149.5L425.5 172.5" stroke="url(#SvgjsLinearGradient2119)" stroke-width="3.83"></path><path d="M419.75 172.5 a5.75 5.75 0 1 0 11.5 0 a5.75 5.75 0 1 0 -11.5 0zM465.75 126.5 a5.75 5.75 0 1 0 11.5 0 a5.75 5.75 0 1 0 -11.5 0zM442.75 218.5 a5.75 5.75 0 1 0 11.5 0 a5.75 5.75 0 1 0 -11.5 0z" fill="url(#SvgjsLinearGradient2119)"></path><path d="M1000.5 -11.5L1000.5 11.5L1000.5 34.5" stroke="url(#SvgjsLinearGradient2119)" stroke-width="3.83"></path><path d="M994.75 34.5 a5.75 5.75 0 1 0 11.5 0 a5.75 5.75 0 1 0 -11.5 0z" fill="url(#SvgjsLinearGradient2119)"></path><path d="M425.5 57.5L402.5 80.5L402.5 103.5L402.5 126.5M402.5 195.5L425.5 218.5L425.5 241.5M402.5 218.5L379.5 241.5M425.5 -11.5L425.5 11.5L425.5 34.5L425.5 57.5L425.5 80.5L425.5 103.5L425.5 126.5L402.5 149.5L402.5 172.5L402.5 195.5L402.5 218.5L402.5 241.5" stroke="url(#SvgjsLinearGradient2119)" stroke-width="3.83"></path><path d="M396.75 241.5 a5.75 5.75 0 1 0 11.5 0 a5.75 5.75 0 1 0 -11.5 0zM396.75 126.5 a5.75 5.75 0 1 0 11.5 0 a5.75 5.75 0 1 0 -11.5 0zM419.75 241.5 a5.75 5.75 0 1 0 11.5 0 a5.75 5.75 0 1 0 -11.5 0zM373.75 241.5 a5.75 5.75 0 1 0 11.5 0 a5.75 5.75 0 1 0 -11.5 0z" fill="url(#SvgjsLinearGradient2119)"></path><path d="M1023.5 11.5L1046.5 34.5M1023.5 57.5L1046.5 80.5L1069.5 103.5L1069.5 126.5M1023.5 -11.5L1023.5 11.5L1023.5 34.5L1023.5 57.5L1023.5 80.5" stroke="url(#SvgjsLinearGradient2119)" stroke-width="3.83"></path><path d="M1017.75 80.5 a5.75 5.75 0 1 0 11.5 0 a5.75 5.75 0 1 0 -11.5 0zM1040.75 34.5 a5.75 5.75 0 1 0 11.5 0 a5.75 5.75 0 1 0 -11.5 0zM1063.75 126.5 a5.75 5.75 0 1 0 11.5 0 a5.75 5.75 0 1 0 -11.5 0z" fill="url(#SvgjsLinearGradient2119)"></path><path d="M402.5 -11.5L402.5 11.5L402.5 34.5" stroke="url(#SvgjsLinearGradient2119)" stroke-width="3.83"></path><path d="M396.75 34.5 a5.75 5.75 0 1 0 11.5 0 a5.75 5.75 0 1 0 -11.5 0z" fill="url(#SvgjsLinearGradient2119)"></path><path d="M379.5 57.5L356.5 80.5M379.5 172.5L356.5 195.5L356.5 218.5L356.5 241.5M379.5 34.5L356.5 57.5L333.5 80.5M379.5 -11.5L379.5 11.5L379.5 34.5L379.5 57.5L379.5 80.5L379.5 103.5L379.5 126.5L379.5 149.5L379.5 172.5L379.5 195.5" stroke="url(#SvgjsLinearGradient2119)" stroke-width="3.83"></path><path d="M373.75 195.5 a5.75 5.75 0 1 0 11.5 0 a5.75 5.75 0 1 0 -11.5 0zM350.75 80.5 a5.75 5.75 0 1 0 11.5 0 a5.75 5.75 0 1 0 -11.5 0zM350.75 241.5 a5.75 5.75 0 1 0 11.5 0 a5.75 5.75 0 1 0 -11.5 0zM327.75 80.5 a5.75 5.75 0 1 0 11.5 0 a5.75 5.75 0 1 0 -11.5 0z" fill="url(#SvgjsLinearGradient2119)"></path></g></g><defs><mask id="SvgjsMask2117"><rect width="1440" height="560" fill="#ffffff"></rect></mask><linearGradient x1="15.28%" y1="-39.29%" x2="84.72%" y2="139.29%" gradientUnits="userSpaceOnUse" id="SvgjsLinearGradient2118"><stop stop-color="#0e2a47" offset="0"></stop><stop stop-color="rgba(0, 20, 45, 1)" offset="1"></stop></linearGradient><linearGradient x1="0" y1="145.6" x2="1440" y2="145.6" gradientUnits="userSpaceOnUse" id="SvgjsLinearGradient2119"><stop stop-color="#3a7cc3" offset="0"></stop><stop stop-color="rgba(212, 14, 47, 1)" offset="1"></stop></linearGradient><mask id="SvgjsMask2120"><rect width="1440" height="560" fill="white"></rect><path d="M744.62 11.5 a2.88 2.88 0 1 0 5.76 0 a2.88 2.88 0 1 0 -5.76 0z" fill="black"></path><path d="M744.62 241.5 a2.88 2.88 0 1 0 5.76 0 a2.88 2.88 0 1 0 -5.76 0zM698.62 172.5 a2.88 2.88 0 1 0 5.76 0 a2.88 2.88 0 1 0 -5.76 0zM721.62 241.5 a2.88 2.88 0 1 0 5.76 0 a2.88 2.88 0 1 0 -5.76 0zM744.62 80.5 a2.88 2.88 0 1 0 5.76 0 a2.88 2.88 0 1 0 -5.76 0z" fill="black"></path><path d="M767.62 172.5 a2.88 2.88 0 1 0 5.76 0 a2.88 2.88 0 1 0 -5.76 0zM767.62 126.5 a2.88 2.88 0 1 0 5.76 0 a2.88 2.88 0 1 0 -5.76 0z" fill="black"></path><path d="M675.62 57.5 a2.88 2.88 0 1 0 5.76 0 a2.88 2.88 0 1 0 -5.76 0zM698.62 80.5 a2.88 2.88 0 1 0 5.76 0 a2.88 2.88 0 1 0 -5.76 0z" fill="black"></path><path d="M813.62 172.5 a2.88 2.88 0 1 0 5.76 0 a2.88 2.88 0 1 0 -5.76 0zM813.62 149.5 a2.88 2.88 0 1 0 5.76 0 a2.88 2.88 0 1 0 -5.76 0z" fill="black"></path><path d="M652.62 126.5 a2.88 2.88 0 1 0 5.76 0 a2.88 2.88 0 1 0 -5.76 0zM675.62 172.5 a2.88 2.88 0 1 0 5.76 0 a2.88 2.88 0 1 0 -5.76 0zM629.62 149.5 a2.88 2.88 0 1 0 5.76 0 a2.88 2.88 0 1 0 -5.76 0z" fill="black"></path><path d="M836.62 149.5 a2.88 2.88 0 1 0 5.76 0 a2.88 2.88 0 1 0 -5.76 0zM813.62 103.5 a2.88 2.88 0 1 0 5.76 0 a2.88 2.88 0 1 0 -5.76 0z" fill="black"></path><path d="M606.62 80.5 a2.88 2.88 0 1 0 5.76 0 a2.88 2.88 0 1 0 -5.76 0zM629.62 57.5 a2.88 2.88 0 1 0 5.76 0 a2.88 2.88 0 1 0 -5.76 0zM629.62 34.5 a2.88 2.88 0 1 0 5.76 0 a2.88 2.88 0 1 0 -5.76 0z" fill="black"></path><path d="M882.62 218.5 a2.88 2.88 0 1 0 5.76 0 a2.88 2.88 0 1 0 -5.76 0zM836.62 80.5 a2.88 2.88 0 1 0 5.76 0 a2.88 2.88 0 1 0 -5.76 0zM859.62 195.5 a2.88 2.88 0 1 0 5.76 0 a2.88 2.88 0 1 0 -5.76 0z" fill="black"></path><path d="M583.62 172.5 a2.88 2.88 0 1 0 5.76 0 a2.88 2.88 0 1 0 -5.76 0zM583.62 241.5 a2.88 2.88 0 1 0 5.76 0 a2.88 2.88 0 1 0 -5.76 0zM606.62 241.5 a2.88 2.88 0 1 0 5.76 0 a2.88 2.88 0 1 0 -5.76 0z" fill="black"></path><path d="M905.62 241.5 a2.88 2.88 0 1 0 5.76 0 a2.88 2.88 0 1 0 -5.76 0zM928.62 241.5 a2.88 2.88 0 1 0 5.76 0 a2.88 2.88 0 1 0 -5.76 0z" fill="black"></path><path d="M537.62 149.5 a2.88 2.88 0 1 0 5.76 0 a2.88 2.88 0 1 0 -5.76 0zM560.62 149.5 a2.88 2.88 0 1 0 5.76 0 a2.88 2.88 0 1 0 -5.76 0z" fill="black"></path><path d="M928.62 195.5 a2.88 2.88 0 1 0 5.76 0 a2.88 2.88 0 1 0 -5.76 0z" fill="black"></path><path d="M514.62 195.5 a2.88 2.88 0 1 0 5.76 0 a2.88 2.88 0 1 0 -5.76 0zM537.62 195.5 a2.88 2.88 0 1 0 5.76 0 a2.88 2.88 0 1 0 -5.76 0z" fill="black"></path><path d="M928.62 149.5 a2.88 2.88 0 1 0 5.76 0 a2.88 2.88 0 1 0 -5.76 0zM905.62 57.5 a2.88 2.88 0 1 0 5.76 0 a2.88 2.88 0 1 0 -5.76 0z" fill="black"></path><path d="M951.62 126.5 a2.88 2.88 0 1 0 5.76 0 a2.88 2.88 0 1 0 -5.76 0z" fill="black"></path><path d="M491.62 218.5 a2.88 2.88 0 1 0 5.76 0 a2.88 2.88 0 1 0 -5.76 0zM491.62 126.5 a2.88 2.88 0 1 0 5.76 0 a2.88 2.88 0 1 0 -5.76 0zM468.62 241.5 a2.88 2.88 0 1 0 5.76 0 a2.88 2.88 0 1 0 -5.76 0zM468.62 80.5 a2.88 2.88 0 1 0 5.76 0 a2.88 2.88 0 1 0 -5.76 0z" fill="black"></path><path d="M974.62 103.5 a2.88 2.88 0 1 0 5.76 0 a2.88 2.88 0 1 0 -5.76 0zM997.62 103.5 a2.88 2.88 0 1 0 5.76 0 a2.88 2.88 0 1 0 -5.76 0zM997.62 80.5 a2.88 2.88 0 1 0 5.76 0 a2.88 2.88 0 1 0 -5.76 0z" fill="black"></path><path d="M468.62 34.5 a2.88 2.88 0 1 0 5.76 0 a2.88 2.88 0 1 0 -5.76 0z" fill="black"></path><path d="M974.62 34.5 a2.88 2.88 0 1 0 5.76 0 a2.88 2.88 0 1 0 -5.76 0z" fill="black"></path><path d="M422.62 172.5 a2.88 2.88 0 1 0 5.76 0 a2.88 2.88 0 1 0 -5.76 0zM468.62 126.5 a2.88 2.88 0 1 0 5.76 0 a2.88 2.88 0 1 0 -5.76 0zM445.62 218.5 a2.88 2.88 0 1 0 5.76 0 a2.88 2.88 0 1 0 -5.76 0z" fill="black"></path><path d="M997.62 34.5 a2.88 2.88 0 1 0 5.76 0 a2.88 2.88 0 1 0 -5.76 0z" fill="black"></path><path d="M399.62 241.5 a2.88 2.88 0 1 0 5.76 0 a2.88 2.88 0 1 0 -5.76 0zM399.62 126.5 a2.88 2.88 0 1 0 5.76 0 a2.88 2.88 0 1 0 -5.76 0zM422.62 241.5 a2.88 2.88 0 1 0 5.76 0 a2.88 2.88 0 1 0 -5.76 0zM376.62 241.5 a2.88 2.88 0 1 0 5.76 0 a2.88 2.88 0 1 0 -5.76 0z" fill="black"></path><path d="M1020.62 80.5 a2.88 2.88 0 1 0 5.76 0 a2.88 2.88 0 1 0 -5.76 0zM1043.62 34.5 a2.88 2.88 0 1 0 5.76 0 a2.88 2.88 0 1 0 -5.76 0zM1066.62 126.5 a2.88 2.88 0 1 0 5.76 0 a2.88 2.88 0 1 0 -5.76 0z" fill="black"></path><path d="M399.62 34.5 a2.88 2.88 0 1 0 5.76 0 a2.88 2.88 0 1 0 -5.76 0z" fill="black"></path><path d="M376.62 195.5 a2.88 2.88 0 1 0 5.76 0 a2.88 2.88 0 1 0 -5.76 0zM353.62 80.5 a2.88 2.88 0 1 0 5.76 0 a2.88 2.88 0 1 0 -5.76 0zM353.62 241.5 a2.88 2.88 0 1 0 5.76 0 a2.88 2.88 0 1 0 -5.76 0zM330.62 80.5 a2.88 2.88 0 1 0 5.76 0 a2.88 2.88 0 1 0 -5.76 0z" fill="black"></path></mask></defs></svg>